<svg xmlns="http://www.w3.org/2000/svg" viewBox="0 0 800 200" width="800" height="200">
  <!-- Background: GitHub dark mode -->
  <rect width="800" height="200" rx="12" ry="12" fill="#0d1117"/>

  <!-- Logo: V + Cursor icon scaled and centered in a squircle -->
  <g transform="translate(60, 100) scale(0.55)">
    <!-- White squircle background -->
    <rect x="-80" y="-80" width="160" height="160" rx="36" ry="36" fill="white" stroke="#e0e0e0" stroke-width="1"/>

    <!-- V + Cursor paths (viewBox 306x276, centered) -->
    <g transform="translate(-80, -80) scale(0.52) translate(12, 8)">
      <!-- Black V outline -->
      <path d="M 171.72514,48.968207 180.22123,57.534607 121.61576,117.00727 V 57.534607 H 127.30326 L 135.79936,48.968207 V 26.358827 L 127.30326,17.792417 H 32.83842 L 24.34233,26.358827 V 48.968207 L 32.83842,57.534607 H 39.46341 V 250.28071 L 49.8306,258.7768 H 79.135285 L 282.24467,48.968207 V 26.358827 L 273.74858,17.792417 H 181.15873 L 171.72514,26.358827 V 48.968207" fill="#000000"/>
      <!-- White highlights - left top bar -->
      <path d="M 35.647,51.847107 29.95951,46.159607 V 29.167417 L 35.647,23.479917 124.49467,23.409607 130.11186,29.167417 124.49467,31.905707 121.61576,29.167417 35.647,43.280707 V 51.847107" fill="#ffffff"/>
      <!-- White highlight - left vertical bar -->
      <path d="M 52.63919,253.0893 46.01419,247.4018 V 51.776797 L 52.63919,46.159607 V 253.0893" fill="#ffffff"/>
      <!-- White highlight - diagonal stroke -->
      <path d="M 194.40483,51.847107 200.09233,46.159607 V 57.534607 L 105.55717,153.87055 115.99858,131.19086 194.40483,51.847107" fill="#ffffff"/>
      <!-- Dark green shadow - left corner -->
      <path d="M 54.5806,43.351017 52.63919,46.159607 46.01419,51.847107 H 35.647 V 40.472107 L 54.5806,43.351017" fill="#859966"/>
      <!-- Dark green shadow - left bar inner -->
      <path d="M 115.99858,51.847107 V 131.19086 L 105.55717,153.80024 V 46.089297 H 121.61576 L 124.49467,43.280707 121.61576,29.167417 H 130.11186 V 46.159607 L 124.49467,51.847107 H 115.99858" fill="#859966"/>
      <!-- White highlight - right top bar -->
      <path d="M 183.02983,51.847107 177.41264,46.159607 V 29.167417 L 183.96733,23.479917 H 270.00639 L 276.63139,29.167417 267.12748,37.663517 183.02983,43.280707 V 51.847107" fill="#ffffff"/>
      <!-- Dark green shadow - diagonal + bottom -->
      <path d="M 276.63139,46.159607 77.189975,253.0893 H 52.63919 V 244.59321 H 70.639195 L 270.00639,40.472107 267.12748,29.167417 H 276.63139 V 46.159607" fill="#859966"/>
      <!-- Dark green shadow - right corner -->
      <path d="M 201.96733,43.351017 200.02201,46.159607 194.40483,51.847107 H 183.02983 V 40.472107 L 201.96733,43.351017" fill="#859966"/>
      <!-- Green V body -->
      <path d="M 105.55717,153.80024 V 46.089297 H 121.61576 L 124.49467,43.280707 V 31.905707 L 121.61576,29.097107 H 38.4556 L 35.647,31.905707 V 43.280707 L 38.4556,46.089297 H 52.63919 V 244.59321 L 56.31108,247.4018 H 72.510285 L 270.93998,40.472107 V 32.335387 L 268.06108,29.097107 H 185.90873 L 183.02983,31.905707 V 43.351017 L 185.90873,46.159607 H 200.09233 V 57.534607 L 105.55717,153.80024" fill="#a7c080"/>
      <!-- Cursor border -->
      <path d="M 164.3,99.8 L 158.0,102.4 L 158.0,240.2 L 164.5,243.0 L 182.6,225.5 L 193.3,227.2 L 208.6,256.2 L 220.7,259.9 L 241.7,248.7 L 245.4,236.5 L 233.1,213.6 L 237.9,205.7 L 260.4,205.7 L 263.1,199.3 Z" fill="#000000"/>
      <!-- Cursor white highlight -->
      <path d="M 249.0,199.7 L 250.8,195.4 L 168.2,112.2 L 164.0,113.9 L 164.0,229.1 L 168.3,230.9 L 173.6,217.5 L 170.0,215.9 L 170.0,127.5 L 173.5,126.0 L 237.1,190.1 L 235.6,193.7 Z" fill="#ffffff"/>
      <!-- Cursor gray shadow -->
      <path d="M 168.3,230.9 L 186.3,213.5 L 193.4,214.7 L 212.4,250.7 L 220.5,253.2 L 236.2,244.8 L 238.6,236.7 L 221.7,205.0 L 224.8,199.7 L 249.0,199.7 L 235.6,193.7 L 213.8,193.7 L 211.2,198.1 L 231.0,235.1 L 229.0,241.9 L 222.1,245.5 L 215.4,243.5 L 194.6,203.9 L 188.6,203.0 L 173.6,217.5 Z" fill="#859966"/>
      <!-- Cursor green body -->
      <path d="M 173.5,126.0 L 170.0,127.5 L 170.0,215.9 L 173.6,217.5 L 188.6,203.0 L 194.6,203.9 L 215.4,243.5 L 222.1,245.5 L 229.0,241.9 L 231.0,235.1 L 211.2,198.1 L 213.8,193.7 L 235.6,193.7 L 237.1,190.1 Z" fill="#a7c080"/>
    </g>
  </g>

  <!-- App name -->
  <text x="160" y="92" font-family="system-ui, -apple-system, 'Helvetica Neue', sans-serif" font-size="52" font-weight="700" fill="#a7c080">Vimursor</text>

  <!-- Tagline -->
  <text x="160" y="126" font-family="system-ui, -apple-system, 'Helvetica Neue', sans-serif" font-size="18" font-weight="400" fill="#8b949e">Vim-style navigation for macOS</text>
</svg>
